<svg width="136" height="136" viewBox="0 0 136 136" fill="none" xmlns="http://www.w3.org/2000/svg">
<rect width="135.148" height="135.578" fill="#43217C"/>
<path d="M135.144 67.57C135.144 49.6493 128.025 32.4626 115.353 19.7908C102.682 7.11896 85.4949 1.35297e-06 67.5742 0C49.6535 -1.35297e-06 32.4668 7.11896 19.795 19.7908C7.12318 32.4626 0.00421413 49.6493 0.00421143 67.57L67.5742 67.57H135.144Z" fill="#E65252"/>
<path d="M-1.37589e-05 68.0084C0.00221163 85.9291 7.1233 103.115 19.7967 115.785C32.4701 128.455 49.6577 135.572 67.5784 135.57C85.499 135.568 102.685 128.447 115.355 115.773C128.025 103.1 135.142 85.9123 135.14 67.9916L67.57 68L-1.37589e-05 68.0084Z" fill="#D9D9D9"/>
<path d="M0.00421143 68H47.3019" stroke="black" stroke-width="10.1352"/>
<path d="M87.8428 68H135.14" stroke="black" stroke-width="10.1352"/>
<path d="M68.2746 88.5409C79.47 88.5409 88.5451 79.4658 88.5451 68.2704C88.5451 57.0751 79.47 48 68.2746 48C57.0793 48 48.0042 57.0751 48.0042 68.2704C48.0042 79.4658 57.0793 88.5409 68.2746 88.5409Z" stroke="black" stroke-width="10.1352" stroke-linecap="round" stroke-linejoin="round"/>
<circle cx="68.5042" cy="67.5" r="15.5" fill="#D9D9D9"/>
</svg>
